<mxfile host="app.diagrams.net" modified="2020-09-09T01:59:29.774Z" agent="5.0 (Windows NT 10.0; Win64; x64) AppleWebKit/537.36 (KHTML, like Gecko) Chrome/85.0.4183.83 Safari/537.36" etag="OailgWVAvYdCzr7Qlpx2" version="13.6.9" type="github">
  <diagram id="lp7pzZUwaLm7XAebwCLD" name="Page-1">
    <mxGraphModel dx="745" dy="654" grid="1" gridSize="10" guides="1" tooltips="1" connect="1" arrows="1" fold="1" page="1" pageScale="1" pageWidth="850" pageHeight="1100" math="0" shadow="0">
      <root>
        <mxCell id="0" />
        <mxCell id="1" parent="0" />
        <mxCell id="WMdSiYsk_7yJCBq60dbt-70" value="" style="edgeStyle=entityRelationEdgeStyle;fontSize=12;html=1;endArrow=ERzeroToMany;endFill=1;exitX=1;exitY=0.5;exitDx=0;exitDy=0;entryX=0;entryY=0.5;entryDx=0;entryDy=0;startArrow=ERmandOne;startFill=0;" edge="1" parent="1" source="WMdSiYsk_7yJCBq60dbt-1" target="WMdSiYsk_7yJCBq60dbt-35">
          <mxGeometry width="100" height="100" relative="1" as="geometry">
            <mxPoint x="370" y="400" as="sourcePoint" />
            <mxPoint x="480" y="400" as="targetPoint" />
          </mxGeometry>
        </mxCell>
        <mxCell id="WMdSiYsk_7yJCBq60dbt-76" value="Writes" style="edgeLabel;html=1;align=center;verticalAlign=middle;resizable=0;points=[];" vertex="1" connectable="0" parent="WMdSiYsk_7yJCBq60dbt-70">
          <mxGeometry x="-0.0268" relative="1" as="geometry">
            <mxPoint as="offset" />
          </mxGeometry>
        </mxCell>
        <mxCell id="WMdSiYsk_7yJCBq60dbt-1" value="Author" style="shape=table;startSize=30;container=1;collapsible=1;childLayout=tableLayout;fixedRows=1;rowLines=0;fontStyle=1;align=center;resizeLast=1;" vertex="1" parent="1">
          <mxGeometry x="140" y="335" width="180" height="160" as="geometry" />
        </mxCell>
        <mxCell id="WMdSiYsk_7yJCBq60dbt-2" value="" style="shape=partialRectangle;collapsible=0;dropTarget=0;pointerEvents=0;fillColor=none;top=0;left=0;bottom=1;right=0;points=[[0,0.5],[1,0.5]];portConstraint=eastwest;" vertex="1" parent="WMdSiYsk_7yJCBq60dbt-1">
          <mxGeometry y="30" width="180" height="30" as="geometry" />
        </mxCell>
        <mxCell id="WMdSiYsk_7yJCBq60dbt-3" value="PK" style="shape=partialRectangle;connectable=0;fillColor=none;top=0;left=0;bottom=0;right=0;fontStyle=1;overflow=hidden;" vertex="1" parent="WMdSiYsk_7yJCBq60dbt-2">
          <mxGeometry width="30" height="30" as="geometry" />
        </mxCell>
        <mxCell id="WMdSiYsk_7yJCBq60dbt-4" value="authorID" style="shape=partialRectangle;connectable=0;fillColor=none;top=0;left=0;bottom=0;right=0;align=left;spacingLeft=6;fontStyle=5;overflow=hidden;" vertex="1" parent="WMdSiYsk_7yJCBq60dbt-2">
          <mxGeometry x="30" width="150" height="30" as="geometry" />
        </mxCell>
        <mxCell id="WMdSiYsk_7yJCBq60dbt-5" value="" style="shape=partialRectangle;collapsible=0;dropTarget=0;pointerEvents=0;fillColor=none;top=0;left=0;bottom=0;right=0;points=[[0,0.5],[1,0.5]];portConstraint=eastwest;" vertex="1" parent="WMdSiYsk_7yJCBq60dbt-1">
          <mxGeometry y="60" width="180" height="30" as="geometry" />
        </mxCell>
        <mxCell id="WMdSiYsk_7yJCBq60dbt-6" value="" style="shape=partialRectangle;connectable=0;fillColor=none;top=0;left=0;bottom=0;right=0;editable=1;overflow=hidden;" vertex="1" parent="WMdSiYsk_7yJCBq60dbt-5">
          <mxGeometry width="30" height="30" as="geometry" />
        </mxCell>
        <mxCell id="WMdSiYsk_7yJCBq60dbt-7" value="authorFirstName" style="shape=partialRectangle;connectable=0;fillColor=none;top=0;left=0;bottom=0;right=0;align=left;spacingLeft=6;overflow=hidden;" vertex="1" parent="WMdSiYsk_7yJCBq60dbt-5">
          <mxGeometry x="30" width="150" height="30" as="geometry" />
        </mxCell>
        <mxCell id="WMdSiYsk_7yJCBq60dbt-8" value="" style="shape=partialRectangle;collapsible=0;dropTarget=0;pointerEvents=0;fillColor=none;top=0;left=0;bottom=0;right=0;points=[[0,0.5],[1,0.5]];portConstraint=eastwest;" vertex="1" parent="WMdSiYsk_7yJCBq60dbt-1">
          <mxGeometry y="90" width="180" height="30" as="geometry" />
        </mxCell>
        <mxCell id="WMdSiYsk_7yJCBq60dbt-9" value="" style="shape=partialRectangle;connectable=0;fillColor=none;top=0;left=0;bottom=0;right=0;editable=1;overflow=hidden;" vertex="1" parent="WMdSiYsk_7yJCBq60dbt-8">
          <mxGeometry width="30" height="30" as="geometry" />
        </mxCell>
        <mxCell id="WMdSiYsk_7yJCBq60dbt-10" value="authorLastName" style="shape=partialRectangle;connectable=0;fillColor=none;top=0;left=0;bottom=0;right=0;align=left;spacingLeft=6;overflow=hidden;" vertex="1" parent="WMdSiYsk_7yJCBq60dbt-8">
          <mxGeometry x="30" width="150" height="30" as="geometry" />
        </mxCell>
        <mxCell id="WMdSiYsk_7yJCBq60dbt-11" value="" style="shape=partialRectangle;collapsible=0;dropTarget=0;pointerEvents=0;fillColor=none;top=0;left=0;bottom=0;right=0;points=[[0,0.5],[1,0.5]];portConstraint=eastwest;" vertex="1" parent="WMdSiYsk_7yJCBq60dbt-1">
          <mxGeometry y="120" width="180" height="30" as="geometry" />
        </mxCell>
        <mxCell id="WMdSiYsk_7yJCBq60dbt-12" value="" style="shape=partialRectangle;connectable=0;fillColor=none;top=0;left=0;bottom=0;right=0;editable=1;overflow=hidden;" vertex="1" parent="WMdSiYsk_7yJCBq60dbt-11">
          <mxGeometry width="30" height="30" as="geometry" />
        </mxCell>
        <mxCell id="WMdSiYsk_7yJCBq60dbt-13" value="Row 3" style="shape=partialRectangle;connectable=0;fillColor=none;top=0;left=0;bottom=0;right=0;align=left;spacingLeft=6;overflow=hidden;" vertex="1" parent="WMdSiYsk_7yJCBq60dbt-11">
          <mxGeometry x="30" width="150" height="30" as="geometry" />
        </mxCell>
        <mxCell id="WMdSiYsk_7yJCBq60dbt-44" value="Publisher" style="shape=table;startSize=30;container=1;collapsible=1;childLayout=tableLayout;fixedRows=1;rowLines=0;fontStyle=1;align=center;resizeLast=1;" vertex="1" parent="1">
          <mxGeometry x="140" y="630" width="180" height="160" as="geometry" />
        </mxCell>
        <mxCell id="WMdSiYsk_7yJCBq60dbt-45" value="" style="shape=partialRectangle;collapsible=0;dropTarget=0;pointerEvents=0;fillColor=none;top=0;left=0;bottom=1;right=0;points=[[0,0.5],[1,0.5]];portConstraint=eastwest;" vertex="1" parent="WMdSiYsk_7yJCBq60dbt-44">
          <mxGeometry y="30" width="180" height="30" as="geometry" />
        </mxCell>
        <mxCell id="WMdSiYsk_7yJCBq60dbt-46" value="PK" style="shape=partialRectangle;connectable=0;fillColor=none;top=0;left=0;bottom=0;right=0;fontStyle=1;overflow=hidden;" vertex="1" parent="WMdSiYsk_7yJCBq60dbt-45">
          <mxGeometry width="30" height="30" as="geometry" />
        </mxCell>
        <mxCell id="WMdSiYsk_7yJCBq60dbt-47" value="publisherID" style="shape=partialRectangle;connectable=0;fillColor=none;top=0;left=0;bottom=0;right=0;align=left;spacingLeft=6;fontStyle=5;overflow=hidden;" vertex="1" parent="WMdSiYsk_7yJCBq60dbt-45">
          <mxGeometry x="30" width="150" height="30" as="geometry" />
        </mxCell>
        <mxCell id="WMdSiYsk_7yJCBq60dbt-48" value="" style="shape=partialRectangle;collapsible=0;dropTarget=0;pointerEvents=0;fillColor=none;top=0;left=0;bottom=0;right=0;points=[[0,0.5],[1,0.5]];portConstraint=eastwest;" vertex="1" parent="WMdSiYsk_7yJCBq60dbt-44">
          <mxGeometry y="60" width="180" height="30" as="geometry" />
        </mxCell>
        <mxCell id="WMdSiYsk_7yJCBq60dbt-49" value="" style="shape=partialRectangle;connectable=0;fillColor=none;top=0;left=0;bottom=0;right=0;editable=1;overflow=hidden;" vertex="1" parent="WMdSiYsk_7yJCBq60dbt-48">
          <mxGeometry width="30" height="30" as="geometry" />
        </mxCell>
        <mxCell id="WMdSiYsk_7yJCBq60dbt-50" value="Row 1" style="shape=partialRectangle;connectable=0;fillColor=none;top=0;left=0;bottom=0;right=0;align=left;spacingLeft=6;overflow=hidden;" vertex="1" parent="WMdSiYsk_7yJCBq60dbt-48">
          <mxGeometry x="30" width="150" height="30" as="geometry" />
        </mxCell>
        <mxCell id="WMdSiYsk_7yJCBq60dbt-51" value="" style="shape=partialRectangle;collapsible=0;dropTarget=0;pointerEvents=0;fillColor=none;top=0;left=0;bottom=0;right=0;points=[[0,0.5],[1,0.5]];portConstraint=eastwest;" vertex="1" parent="WMdSiYsk_7yJCBq60dbt-44">
          <mxGeometry y="90" width="180" height="30" as="geometry" />
        </mxCell>
        <mxCell id="WMdSiYsk_7yJCBq60dbt-52" value="" style="shape=partialRectangle;connectable=0;fillColor=none;top=0;left=0;bottom=0;right=0;editable=1;overflow=hidden;" vertex="1" parent="WMdSiYsk_7yJCBq60dbt-51">
          <mxGeometry width="30" height="30" as="geometry" />
        </mxCell>
        <mxCell id="WMdSiYsk_7yJCBq60dbt-53" value="Row 2" style="shape=partialRectangle;connectable=0;fillColor=none;top=0;left=0;bottom=0;right=0;align=left;spacingLeft=6;overflow=hidden;" vertex="1" parent="WMdSiYsk_7yJCBq60dbt-51">
          <mxGeometry x="30" width="150" height="30" as="geometry" />
        </mxCell>
        <mxCell id="WMdSiYsk_7yJCBq60dbt-54" value="" style="shape=partialRectangle;collapsible=0;dropTarget=0;pointerEvents=0;fillColor=none;top=0;left=0;bottom=0;right=0;points=[[0,0.5],[1,0.5]];portConstraint=eastwest;" vertex="1" parent="WMdSiYsk_7yJCBq60dbt-44">
          <mxGeometry y="120" width="180" height="30" as="geometry" />
        </mxCell>
        <mxCell id="WMdSiYsk_7yJCBq60dbt-55" value="" style="shape=partialRectangle;connectable=0;fillColor=none;top=0;left=0;bottom=0;right=0;editable=1;overflow=hidden;" vertex="1" parent="WMdSiYsk_7yJCBq60dbt-54">
          <mxGeometry width="30" height="30" as="geometry" />
        </mxCell>
        <mxCell id="WMdSiYsk_7yJCBq60dbt-56" value="Row 3" style="shape=partialRectangle;connectable=0;fillColor=none;top=0;left=0;bottom=0;right=0;align=left;spacingLeft=6;overflow=hidden;" vertex="1" parent="WMdSiYsk_7yJCBq60dbt-54">
          <mxGeometry x="30" width="150" height="30" as="geometry" />
        </mxCell>
        <mxCell id="WMdSiYsk_7yJCBq60dbt-74" value="" style="fontSize=12;html=1;endArrow=ERoneToMany;entryX=0;entryY=1;entryDx=0;entryDy=0;startArrow=ERmandOne;startFill=0;" edge="1" parent="1" source="WMdSiYsk_7yJCBq60dbt-44" target="WMdSiYsk_7yJCBq60dbt-31">
          <mxGeometry width="100" height="100" relative="1" as="geometry">
            <mxPoint x="250" y="590" as="sourcePoint" />
            <mxPoint x="490" y="480" as="targetPoint" />
          </mxGeometry>
        </mxCell>
        <mxCell id="WMdSiYsk_7yJCBq60dbt-77" value="Publishes" style="edgeLabel;html=1;align=center;verticalAlign=middle;resizable=0;points=[];" vertex="1" connectable="0" parent="WMdSiYsk_7yJCBq60dbt-74">
          <mxGeometry x="0.0466" y="1" relative="1" as="geometry">
            <mxPoint as="offset" />
          </mxGeometry>
        </mxCell>
        <mxCell id="WMdSiYsk_7yJCBq60dbt-31" value="Book" style="shape=table;startSize=30;container=1;collapsible=1;childLayout=tableLayout;fixedRows=1;rowLines=0;fontStyle=1;align=center;resizeLast=1;" vertex="1" parent="1">
          <mxGeometry x="520" y="350" width="180" height="160" as="geometry" />
        </mxCell>
        <mxCell id="WMdSiYsk_7yJCBq60dbt-32" value="" style="shape=partialRectangle;collapsible=0;dropTarget=0;pointerEvents=0;fillColor=none;top=0;left=0;bottom=1;right=0;points=[[0,0.5],[1,0.5]];portConstraint=eastwest;" vertex="1" parent="WMdSiYsk_7yJCBq60dbt-31">
          <mxGeometry y="30" width="180" height="30" as="geometry" />
        </mxCell>
        <mxCell id="WMdSiYsk_7yJCBq60dbt-33" value="PK" style="shape=partialRectangle;connectable=0;fillColor=none;top=0;left=0;bottom=0;right=0;fontStyle=1;overflow=hidden;" vertex="1" parent="WMdSiYsk_7yJCBq60dbt-32">
          <mxGeometry width="30" height="30" as="geometry" />
        </mxCell>
        <mxCell id="WMdSiYsk_7yJCBq60dbt-34" value="bookID" style="shape=partialRectangle;connectable=0;fillColor=none;top=0;left=0;bottom=0;right=0;align=left;spacingLeft=6;fontStyle=5;overflow=hidden;" vertex="1" parent="WMdSiYsk_7yJCBq60dbt-32">
          <mxGeometry x="30" width="150" height="30" as="geometry" />
        </mxCell>
        <mxCell id="WMdSiYsk_7yJCBq60dbt-35" value="" style="shape=partialRectangle;collapsible=0;dropTarget=0;pointerEvents=0;fillColor=none;top=0;left=0;bottom=0;right=0;points=[[0,0.5],[1,0.5]];portConstraint=eastwest;" vertex="1" parent="WMdSiYsk_7yJCBq60dbt-31">
          <mxGeometry y="60" width="180" height="30" as="geometry" />
        </mxCell>
        <mxCell id="WMdSiYsk_7yJCBq60dbt-36" value="" style="shape=partialRectangle;connectable=0;fillColor=none;top=0;left=0;bottom=0;right=0;editable=1;overflow=hidden;" vertex="1" parent="WMdSiYsk_7yJCBq60dbt-35">
          <mxGeometry width="30" height="30" as="geometry" />
        </mxCell>
        <mxCell id="WMdSiYsk_7yJCBq60dbt-37" value="Row 1" style="shape=partialRectangle;connectable=0;fillColor=none;top=0;left=0;bottom=0;right=0;align=left;spacingLeft=6;overflow=hidden;" vertex="1" parent="WMdSiYsk_7yJCBq60dbt-35">
          <mxGeometry x="30" width="150" height="30" as="geometry" />
        </mxCell>
        <mxCell id="WMdSiYsk_7yJCBq60dbt-38" value="" style="shape=partialRectangle;collapsible=0;dropTarget=0;pointerEvents=0;fillColor=none;top=0;left=0;bottom=0;right=0;points=[[0,0.5],[1,0.5]];portConstraint=eastwest;" vertex="1" parent="WMdSiYsk_7yJCBq60dbt-31">
          <mxGeometry y="90" width="180" height="30" as="geometry" />
        </mxCell>
        <mxCell id="WMdSiYsk_7yJCBq60dbt-39" value="" style="shape=partialRectangle;connectable=0;fillColor=none;top=0;left=0;bottom=0;right=0;editable=1;overflow=hidden;" vertex="1" parent="WMdSiYsk_7yJCBq60dbt-38">
          <mxGeometry width="30" height="30" as="geometry" />
        </mxCell>
        <mxCell id="WMdSiYsk_7yJCBq60dbt-40" value="Row 2" style="shape=partialRectangle;connectable=0;fillColor=none;top=0;left=0;bottom=0;right=0;align=left;spacingLeft=6;overflow=hidden;" vertex="1" parent="WMdSiYsk_7yJCBq60dbt-38">
          <mxGeometry x="30" width="150" height="30" as="geometry" />
        </mxCell>
        <mxCell id="WMdSiYsk_7yJCBq60dbt-41" value="" style="shape=partialRectangle;collapsible=0;dropTarget=0;pointerEvents=0;fillColor=none;top=0;left=0;bottom=0;right=0;points=[[0,0.5],[1,0.5]];portConstraint=eastwest;" vertex="1" parent="WMdSiYsk_7yJCBq60dbt-31">
          <mxGeometry y="120" width="180" height="30" as="geometry" />
        </mxCell>
        <mxCell id="WMdSiYsk_7yJCBq60dbt-42" value="" style="shape=partialRectangle;connectable=0;fillColor=none;top=0;left=0;bottom=0;right=0;editable=1;overflow=hidden;" vertex="1" parent="WMdSiYsk_7yJCBq60dbt-41">
          <mxGeometry width="30" height="30" as="geometry" />
        </mxCell>
        <mxCell id="WMdSiYsk_7yJCBq60dbt-43" value="Row 3" style="shape=partialRectangle;connectable=0;fillColor=none;top=0;left=0;bottom=0;right=0;align=left;spacingLeft=6;overflow=hidden;" vertex="1" parent="WMdSiYsk_7yJCBq60dbt-41">
          <mxGeometry x="30" width="150" height="30" as="geometry" />
        </mxCell>
        <mxCell id="WMdSiYsk_7yJCBq60dbt-75" value="Buys" style="fontSize=12;html=1;endArrow=ERoneToMany;exitX=0.5;exitY=0;exitDx=0;exitDy=0;entryX=0.75;entryY=1;entryDx=0;entryDy=0;startArrow=ERmandOne;startFill=0;" edge="1" parent="1" source="WMdSiYsk_7yJCBq60dbt-57" target="WMdSiYsk_7yJCBq60dbt-31">
          <mxGeometry width="100" height="100" relative="1" as="geometry">
            <mxPoint x="390" y="700" as="sourcePoint" />
            <mxPoint x="490" y="600" as="targetPoint" />
            <Array as="points">
              <mxPoint x="640" y="570" />
            </Array>
          </mxGeometry>
        </mxCell>
        <mxCell id="WMdSiYsk_7yJCBq60dbt-57" value="Customer" style="shape=table;startSize=30;container=1;collapsible=1;childLayout=tableLayout;fixedRows=1;rowLines=0;fontStyle=1;align=center;resizeLast=1;" vertex="1" parent="1">
          <mxGeometry x="480" y="630" width="180" height="160" as="geometry" />
        </mxCell>
        <mxCell id="WMdSiYsk_7yJCBq60dbt-58" value="" style="shape=partialRectangle;collapsible=0;dropTarget=0;pointerEvents=0;fillColor=none;top=0;left=0;bottom=1;right=0;points=[[0,0.5],[1,0.5]];portConstraint=eastwest;" vertex="1" parent="WMdSiYsk_7yJCBq60dbt-57">
          <mxGeometry y="30" width="180" height="30" as="geometry" />
        </mxCell>
        <mxCell id="WMdSiYsk_7yJCBq60dbt-59" value="PK" style="shape=partialRectangle;connectable=0;fillColor=none;top=0;left=0;bottom=0;right=0;fontStyle=1;overflow=hidden;" vertex="1" parent="WMdSiYsk_7yJCBq60dbt-58">
          <mxGeometry width="30" height="30" as="geometry" />
        </mxCell>
        <mxCell id="WMdSiYsk_7yJCBq60dbt-60" value="CustomerID" style="shape=partialRectangle;connectable=0;fillColor=none;top=0;left=0;bottom=0;right=0;align=left;spacingLeft=6;fontStyle=5;overflow=hidden;" vertex="1" parent="WMdSiYsk_7yJCBq60dbt-58">
          <mxGeometry x="30" width="150" height="30" as="geometry" />
        </mxCell>
        <mxCell id="WMdSiYsk_7yJCBq60dbt-61" value="" style="shape=partialRectangle;collapsible=0;dropTarget=0;pointerEvents=0;fillColor=none;top=0;left=0;bottom=0;right=0;points=[[0,0.5],[1,0.5]];portConstraint=eastwest;" vertex="1" parent="WMdSiYsk_7yJCBq60dbt-57">
          <mxGeometry y="60" width="180" height="30" as="geometry" />
        </mxCell>
        <mxCell id="WMdSiYsk_7yJCBq60dbt-62" value="" style="shape=partialRectangle;connectable=0;fillColor=none;top=0;left=0;bottom=0;right=0;editable=1;overflow=hidden;" vertex="1" parent="WMdSiYsk_7yJCBq60dbt-61">
          <mxGeometry width="30" height="30" as="geometry" />
        </mxCell>
        <mxCell id="WMdSiYsk_7yJCBq60dbt-63" value="Row 1" style="shape=partialRectangle;connectable=0;fillColor=none;top=0;left=0;bottom=0;right=0;align=left;spacingLeft=6;overflow=hidden;" vertex="1" parent="WMdSiYsk_7yJCBq60dbt-61">
          <mxGeometry x="30" width="150" height="30" as="geometry" />
        </mxCell>
        <mxCell id="WMdSiYsk_7yJCBq60dbt-64" value="" style="shape=partialRectangle;collapsible=0;dropTarget=0;pointerEvents=0;fillColor=none;top=0;left=0;bottom=0;right=0;points=[[0,0.5],[1,0.5]];portConstraint=eastwest;" vertex="1" parent="WMdSiYsk_7yJCBq60dbt-57">
          <mxGeometry y="90" width="180" height="30" as="geometry" />
        </mxCell>
        <mxCell id="WMdSiYsk_7yJCBq60dbt-65" value="" style="shape=partialRectangle;connectable=0;fillColor=none;top=0;left=0;bottom=0;right=0;editable=1;overflow=hidden;" vertex="1" parent="WMdSiYsk_7yJCBq60dbt-64">
          <mxGeometry width="30" height="30" as="geometry" />
        </mxCell>
        <mxCell id="WMdSiYsk_7yJCBq60dbt-66" value="Row 2" style="shape=partialRectangle;connectable=0;fillColor=none;top=0;left=0;bottom=0;right=0;align=left;spacingLeft=6;overflow=hidden;" vertex="1" parent="WMdSiYsk_7yJCBq60dbt-64">
          <mxGeometry x="30" width="150" height="30" as="geometry" />
        </mxCell>
        <mxCell id="WMdSiYsk_7yJCBq60dbt-67" value="" style="shape=partialRectangle;collapsible=0;dropTarget=0;pointerEvents=0;fillColor=none;top=0;left=0;bottom=0;right=0;points=[[0,0.5],[1,0.5]];portConstraint=eastwest;" vertex="1" parent="WMdSiYsk_7yJCBq60dbt-57">
          <mxGeometry y="120" width="180" height="30" as="geometry" />
        </mxCell>
        <mxCell id="WMdSiYsk_7yJCBq60dbt-68" value="" style="shape=partialRectangle;connectable=0;fillColor=none;top=0;left=0;bottom=0;right=0;editable=1;overflow=hidden;" vertex="1" parent="WMdSiYsk_7yJCBq60dbt-67">
          <mxGeometry width="30" height="30" as="geometry" />
        </mxCell>
        <mxCell id="WMdSiYsk_7yJCBq60dbt-69" value="Row 3" style="shape=partialRectangle;connectable=0;fillColor=none;top=0;left=0;bottom=0;right=0;align=left;spacingLeft=6;overflow=hidden;" vertex="1" parent="WMdSiYsk_7yJCBq60dbt-67">
          <mxGeometry x="30" width="150" height="30" as="geometry" />
        </mxCell>
      </root>
    </mxGraphModel>
  </diagram>
</mxfile>
